<?xml version="1.0" encoding="UTF-8"?>
<!DOCTYPE svg PUBLIC "-//W3C//DTD SVG 1.1//EN" 
"http://www.w3.org/Graphics/SVG/1.1/DTD/svg11.dtd">

<svg width="100%" height="100%" version="1.1"
xmlns="http://www.w3.org/2000/svg">
<line x1="15.0" y1="178.5109668843764" x2="22.5" y2="178.5109668843764" stroke="rgb(35%, 35%, 35%)" stroke-width="1.0" />
<line x1="32.5" y1="178.5109668843764" x2="40.0" y2="178.5109668843764" stroke="rgb(35%, 35%, 35%)" stroke-width="1.0" />
<line x1="50.0" y1="178.5109668843764" x2="57.5" y2="178.5109668843764" stroke="rgb(35%, 35%, 35%)" stroke-width="1.0" />
<line x1="62.5" y1="173.5109668843764" x2="62.5" y2="163.5109668843764" stroke="rgb(35%, 35%, 35%)" stroke-width="1.0" />
<line x1="60.60052547530273" y1="153.88581861323675" x2="57.75130491987936" y2="146.94807485586145" stroke="rgb(35%, 35%, 35%)" stroke-width="1.0" />
<line x1="57.77360479081668" y1="137.7069994652491" x2="60.656275255586934" y2="130.78308747794105" stroke="rgb(35%, 35%, 35%)" stroke-width="1.0" />
<line x1="67.19860079960264" y1="124.25653033536241" x2="74.12944885161887" y2="121.39057648082988" stroke="rgb(35%, 35%, 35%)" stroke-width="1.0" />
<line x1="83.37055114838113" y1="121.39057648082988" x2="90.30139920039737" y2="124.25653033536241" stroke="rgb(35%, 35%, 35%)" stroke-width="1.0" />
<line x1="96.84372474441307" y1="130.78308747794105" x2="99.72639520918334" y2="137.7069994652491" stroke="rgb(35%, 35%, 35%)" stroke-width="1.0" />
<line x1="99.74869508012064" y1="146.94807485586145" x2="96.89947452469727" y2="153.88581861323675" stroke="rgb(35%, 35%, 35%)" stroke-width="1.0" />
<line x1="95.0" y1="163.5109668843764" x2="95.0" y2="173.5109668843764" stroke="rgb(35%, 35%, 35%)" stroke-width="1.0" />
<line x1="100.0" y1="178.5109668843764" x2="107.5" y2="178.5109668843764" stroke="rgb(35%, 35%, 35%)" stroke-width="1.0" />
<line x1="112.5" y1="173.5109668843764" x2="112.5" y2="163.5109668843764" stroke="rgb(35%, 35%, 35%)" stroke-width="1.0" />
<line x1="112.5" y1="153.5109668843764" x2="112.5" y2="143.51096688437642" stroke="rgb(35%, 35%, 35%)" stroke-width="1.0" />
<line x1="110.59188819311336" y1="133.88937523945364" x2="107.72973465539738" y2="126.95702209921637" stroke="rgb(35%, 35%, 35%)" stroke-width="1.0" />
<line x1="107.72973465539738" y1="117.71383880937086" x2="110.59188819311335" y2="110.78148566913364" stroke="rgb(35%, 35%, 35%)" stroke-width="1.0" />
<line x1="112.49999999999999" y1="101.1598940242109" x2="112.5" y2="91.1598940242109" stroke="rgb(35%, 35%, 35%)" stroke-width="1.0" />
<line x1="112.5" y1="81.1598940242109" x2="112.5" y2="71.1598940242109" stroke="rgb(35%, 35%, 35%)" stroke-width="1.0" />
<line x1="109.23013282382763" y1="62.37730646406237" x2="103.92730277151637" y2="56.24298420913385" stroke="rgb(35%, 35%, 35%)" stroke-width="1.0" />
<line x1="100.09097614431367" y1="47.49258790766501" x2="99.17233387583609" y2="39.43616112691586" stroke="rgb(35%, 35%, 35%)" stroke-width="1.0" />
<line x1="111.48195684295726" y1="16.120091098465565" x2="118.65260989642346" y2="12.334374405708132" stroke="rgb(35%, 35%, 35%)" stroke-width="1.0" />
<line x1="128.0420355517216" y1="10.56645945103034" x2="136.09846233247072" y2="11.485101719507924" stroke="rgb(35%, 35%, 35%)" stroke-width="1.0" />
<line x1="144.84885863393959" y1="15.321428346710633" x2="150.98318088886805" y2="20.624258399021898" stroke="rgb(35%, 35%, 35%)" stroke-width="1.0" />
<line x1="159.7657684490166" y1="23.894125575194266" x2="169.7657684490166" y2="23.894125575194266" stroke="rgb(35%, 35%, 35%)" stroke-width="1.0" />
<line x1="179.39091672015624" y1="21.994651050496998" x2="186.32866047753157" y2="19.145430495073583" stroke="rgb(35%, 35%, 35%)" stroke-width="1.0" />
<line x1="195.56973586814388" y1="19.167730366010915" x2="202.49364785545197" y2="22.0504008307812" stroke="rgb(35%, 35%, 35%)" stroke-width="1.0" />
<line x1="209.0202049980306" y1="28.59272637479694" x2="211.8861588525631" y2="35.52357442681313" stroke="rgb(35%, 35%, 35%)" stroke-width="1.0" />
<line x1="211.88615885256314" y1="44.764676723575406" x2="209.02020499803058" y2="51.69552477559162" stroke="rgb(35%, 35%, 35%)" stroke-width="1.0" />
<line x1="202.49364785545197" y1="58.23785031960733" x2="195.56973586814388" y2="61.12052078437762" stroke="rgb(35%, 35%, 35%)" stroke-width="1.0" />
<line x1="186.32866047753157" y1="61.14282065531492" x2="179.39091672015624" y2="58.29360009989156" stroke="rgb(35%, 35%, 35%)" stroke-width="1.0" />
<line x1="169.7657684490166" y1="56.394125575194295" x2="159.7657684490166" y2="56.394125575194295" stroke="rgb(35%, 35%, 35%)" stroke-width="1.0" />
<line x1="151.23023454308387" y1="59.92965948112703" x2="148.53553390593274" y2="62.62436011827816" stroke="rgb(35%, 35%, 35%)" stroke-width="1.0" />
<line x1="145.0" y1="71.1598940242109" x2="145.0" y2="81.1598940242109" stroke="rgb(35%, 35%, 35%)" stroke-width="1.0" />
<line x1="145.0" y1="91.1598940242109" x2="145.0" y2="101.15989402421087" stroke="rgb(35%, 35%, 35%)" stroke-width="1.0" />
<line x1="146.90811180688664" y1="110.78148566913362" x2="149.77026534460262" y2="117.71383880937086" stroke="rgb(35%, 35%, 35%)" stroke-width="1.0" />
<line x1="149.77026534460262" y1="126.95702209921637" x2="146.90811180688664" y2="133.88937523945364" stroke="rgb(35%, 35%, 35%)" stroke-width="1.0" />
<line x1="145.0" y1="143.51096688437642" x2="145.0" y2="153.51096688437642" stroke="rgb(35%, 35%, 35%)" stroke-width="1.0" />
<line x1="145.0" y1="163.51096688437642" x2="145.0" y2="173.51096688437642" stroke="rgb(35%, 35%, 35%)" stroke-width="1.0" />
<line x1="150.0" y1="178.51096688437642" x2="157.5" y2="178.51096688437642" stroke="rgb(35%, 35%, 35%)" stroke-width="1.0" />
<line x1="167.5" y1="178.51096688437642" x2="175.0" y2="178.51096688437642" stroke="rgb(35%, 35%, 35%)" stroke-width="1.0" />
<line x1="67.5" y1="178.5109668843764" x2="90.0" y2="178.5109668843764" stroke="rgb(0%, 0%, 100%)" stroke-width="1.0" />
<circle cx="78.75" cy="178.5109668843764" r="2.75" stroke="none" stroke-width="1.0" fill="rgb(0%, 0%, 100%)"/>
<line x1="67.5" y1="158.5109668843764" x2="90.0" y2="158.5109668843764" stroke="rgb(0%, 0%, 100%)" stroke-width="1.0" />
<circle cx="78.75" cy="158.5109668843764" r="2.75" stroke="none" stroke-width="1.0" fill="rgb(0%, 0%, 100%)"/>
<line x1="117.5" y1="178.5109668843764" x2="140.0" y2="178.5109668843764" stroke="rgb(0%, 0%, 100%)" stroke-width="1.0" />
<circle cx="128.75" cy="178.5109668843764" r="2.75" stroke="none" stroke-width="1.0" fill="rgb(0%, 0%, 100%)"/>
<line x1="117.5" y1="157.2609668843764" x2="140.0" y2="157.26096688437642" stroke="rgb(0%, 0%, 100%)" stroke-width="1.0" />
<line x1="117.5" y1="159.7609668843764" x2="140.0" y2="159.76096688437642" stroke="rgb(0%, 0%, 100%)" stroke-width="1.0" />
<line x1="117.5" y1="137.26096688437642" x2="140.0" y2="137.26096688437642" stroke="rgb(0%, 0%, 100%)" stroke-width="1.0" />
<line x1="117.5" y1="139.76096688437642" x2="140.0" y2="139.76096688437642" stroke="rgb(0%, 0%, 100%)" stroke-width="1.0" />
<line x1="117.5" y1="104.9098940242109" x2="140.0" y2="104.90989402421087" stroke="rgb(0%, 0%, 100%)" stroke-width="1.0" />
<line x1="117.5" y1="107.4098940242109" x2="140.0" y2="107.40989402421087" stroke="rgb(0%, 0%, 100%)" stroke-width="1.0" />
<line x1="117.5" y1="84.9098940242109" x2="140.0" y2="84.9098940242109" stroke="rgb(0%, 0%, 100%)" stroke-width="1.0" />
<line x1="117.5" y1="87.4098940242109" x2="140.0" y2="87.4098940242109" stroke="rgb(0%, 0%, 100%)" stroke-width="1.0" />
<line x1="117.5" y1="66.1598940242109" x2="140.0" y2="66.1598940242109" stroke="rgb(0%, 0%, 100%)" stroke-width="1.0" />
<circle cx="128.75" cy="66.1598940242109" r="2.75" stroke="none" stroke-width="1.0" fill="rgb(0%, 0%, 100%)"/>
<line x1="154.7657684490166" y1="28.894125575194266" x2="154.7657684490166" y2="51.394125575194295" stroke="rgb(0%, 0%, 100%)" stroke-width="1.0" />
<circle cx="154.7657684490166" cy="40.144125575194266" r="2.75" stroke="none" stroke-width="1.0" fill="rgb(0%, 0%, 100%)"/>
<line x1="174.7657684490166" y1="28.894125575194266" x2="174.7657684490166" y2="51.394125575194295" stroke="rgb(0%, 0%, 100%)" stroke-width="1.0" />
<circle cx="174.7657684490166" cy="40.144125575194266" r="2.75" stroke="none" stroke-width="1.0" fill="rgb(0%, 0%, 100%)"/>
<circle cx="10.0" cy="178.5109668843764" r="5.0" stroke="none" stroke-width="1.0" fill="rgb(27%, 27%, 71%)"/>
<circle cx="10.0" cy="178.5109668843764" r="5.0" stroke="rgb(35%, 35%, 35%)" stroke-width="1.0" fill="none"/>
<text x="10.0" y="181.5109668843764" text-anchor="middle" font-family="Verdana" font-size="7.5" fill="rgb(100%, 100%, 100%)" >A</text>
<circle cx="27.5" cy="178.5109668843764" r="5.0" stroke="none" stroke-width="1.0" fill="rgb(27%, 27%, 71%)"/>
<circle cx="27.5" cy="178.5109668843764" r="5.0" stroke="rgb(35%, 35%, 35%)" stroke-width="1.0" fill="none"/>
<text x="27.5" y="181.5109668843764" text-anchor="middle" font-family="Verdana" font-size="7.5" fill="rgb(100%, 100%, 100%)" >T</text>
<circle cx="45.0" cy="178.5109668843764" r="5.0" stroke="none" stroke-width="1.0" fill="rgb(27%, 27%, 71%)"/>
<circle cx="45.0" cy="178.5109668843764" r="5.0" stroke="rgb(35%, 35%, 35%)" stroke-width="1.0" fill="none"/>
<text x="45.0" y="181.5109668843764" text-anchor="middle" font-family="Verdana" font-size="7.5" fill="rgb(100%, 100%, 100%)" >T</text>
<circle cx="62.5" cy="178.5109668843764" r="5.0" stroke="none" stroke-width="1.0" fill="rgb(71%, 27%, 27%)"/>
<circle cx="62.5" cy="178.5109668843764" r="5.0" stroke="rgb(35%, 35%, 35%)" stroke-width="1.0" fill="none"/>
<text x="62.5" y="181.5109668843764" text-anchor="middle" font-family="Verdana" font-size="7.5" fill="rgb(100%, 100%, 100%)" >A</text>
<circle cx="62.5" cy="158.5109668843764" r="5.0" stroke="none" stroke-width="1.0" fill="rgb(71%, 27%, 27%)"/>
<circle cx="62.5" cy="158.5109668843764" r="5.0" stroke="rgb(35%, 35%, 35%)" stroke-width="1.0" fill="none"/>
<text x="62.5" y="161.5109668843764" text-anchor="middle" font-family="Verdana" font-size="7.5" fill="rgb(100%, 100%, 100%)" >T</text>
<circle cx="55.85183039518209" cy="142.32292658472178" r="5.0" stroke="none" stroke-width="1.0" fill="rgb(27%, 27%, 71%)"/>
<circle cx="55.85183039518209" cy="142.32292658472178" r="5.0" stroke="rgb(35%, 35%, 35%)" stroke-width="1.0" fill="none"/>
<text x="55.85183039518209" y="145.32292658472178" text-anchor="middle" font-family="Verdana" font-size="7.5" fill="rgb(100%, 100%, 100%)" >G</text>
<circle cx="62.57804965122152" cy="126.16716035846838" r="5.0" stroke="none" stroke-width="1.0" fill="rgb(27%, 27%, 71%)"/>
<circle cx="62.57804965122152" cy="126.16716035846838" r="5.0" stroke="rgb(35%, 35%, 35%)" stroke-width="1.0" fill="none"/>
<text x="62.57804965122152" y="129.16716035846838" text-anchor="middle" font-family="Verdana" font-size="7.5" fill="rgb(100%, 100%, 100%)" >C</text>
<circle cx="78.75" cy="119.47994645772394" r="5.0" stroke="none" stroke-width="1.0" fill="rgb(27%, 27%, 71%)"/>
<circle cx="78.75" cy="119.47994645772394" r="5.0" stroke="rgb(35%, 35%, 35%)" stroke-width="1.0" fill="none"/>
<text x="78.75" y="122.47994645772394" text-anchor="middle" font-family="Verdana" font-size="7.5" fill="rgb(100%, 100%, 100%)" >T</text>
<circle cx="94.9219503487785" cy="126.16716035846838" r="5.0" stroke="none" stroke-width="1.0" fill="rgb(27%, 27%, 71%)"/>
<circle cx="94.9219503487785" cy="126.16716035846838" r="5.0" stroke="rgb(35%, 35%, 35%)" stroke-width="1.0" fill="none"/>
<text x="94.9219503487785" y="129.16716035846838" text-anchor="middle" font-family="Verdana" font-size="7.5" fill="rgb(100%, 100%, 100%)" >A</text>
<circle cx="101.64816960481791" cy="142.32292658472178" r="5.0" stroke="none" stroke-width="1.0" fill="rgb(27%, 27%, 71%)"/>
<circle cx="101.64816960481791" cy="142.32292658472178" r="5.0" stroke="rgb(35%, 35%, 35%)" stroke-width="1.0" fill="none"/>
<text x="101.64816960481791" y="145.32292658472178" text-anchor="middle" font-family="Verdana" font-size="7.5" fill="rgb(100%, 100%, 100%)" >T</text>
<circle cx="95.0" cy="158.5109668843764" r="5.0" stroke="none" stroke-width="1.0" fill="rgb(71%, 27%, 27%)"/>
<circle cx="95.0" cy="158.5109668843764" r="5.0" stroke="rgb(35%, 35%, 35%)" stroke-width="1.0" fill="none"/>
<text x="95.0" y="161.5109668843764" text-anchor="middle" font-family="Verdana" font-size="7.5" fill="rgb(100%, 100%, 100%)" >A</text>
<circle cx="95.0" cy="178.5109668843764" r="5.0" stroke="none" stroke-width="1.0" fill="rgb(71%, 27%, 27%)"/>
<circle cx="95.0" cy="178.5109668843764" r="5.0" stroke="rgb(35%, 35%, 35%)" stroke-width="1.0" fill="none"/>
<text x="95.0" y="181.5109668843764" text-anchor="middle" font-family="Verdana" font-size="7.5" fill="rgb(100%, 100%, 100%)" >T</text>
<circle cx="112.5" cy="178.5109668843764" r="5.0" stroke="none" stroke-width="1.0" fill="rgb(71%, 27%, 27%)"/>
<circle cx="112.5" cy="178.5109668843764" r="5.0" stroke="rgb(35%, 35%, 35%)" stroke-width="1.0" fill="none"/>
<text x="112.5" y="181.5109668843764" text-anchor="middle" font-family="Verdana" font-size="7.5" fill="rgb(100%, 100%, 100%)" >T</text>
<circle cx="112.5" cy="158.5109668843764" r="5.0" stroke="none" stroke-width="1.0" fill="rgb(71%, 27%, 27%)"/>
<circle cx="112.5" cy="158.5109668843764" r="5.0" stroke="rgb(35%, 35%, 35%)" stroke-width="1.0" fill="none"/>
<text x="112.5" y="161.5109668843764" text-anchor="middle" font-family="Verdana" font-size="7.5" fill="rgb(100%, 100%, 100%)" >C</text>
<circle cx="112.5" cy="138.51096688437642" r="5.0" stroke="none" stroke-width="1.0" fill="rgb(71%, 27%, 27%)"/>
<circle cx="112.5" cy="138.51096688437642" r="5.0" stroke="rgb(35%, 35%, 35%)" stroke-width="1.0" fill="none"/>
<text x="112.5" y="141.51096688437642" text-anchor="middle" font-family="Verdana" font-size="7.5" fill="rgb(100%, 100%, 100%)" >G</text>
<circle cx="105.82162284851074" cy="122.33543045429363" r="5.0" stroke="none" stroke-width="1.0" fill="rgb(27%, 27%, 71%)"/>
<circle cx="105.82162284851074" cy="122.33543045429363" r="5.0" stroke="rgb(35%, 35%, 35%)" stroke-width="1.0" fill="none"/>
<text x="105.82162284851074" y="125.33543045429363" text-anchor="middle" font-family="Verdana" font-size="7.5" fill="rgb(100%, 100%, 100%)" >G</text>
<circle cx="112.49999999999999" cy="106.1598940242109" r="5.0" stroke="none" stroke-width="1.0" fill="rgb(71%, 27%, 27%)"/>
<circle cx="112.49999999999999" cy="106.1598940242109" r="5.0" stroke="rgb(35%, 35%, 35%)" stroke-width="1.0" fill="none"/>
<text x="112.49999999999999" y="109.1598940242109" text-anchor="middle" font-family="Verdana" font-size="7.5" fill="rgb(100%, 100%, 100%)" >C</text>
<circle cx="112.5" cy="86.1598940242109" r="5.0" stroke="none" stroke-width="1.0" fill="rgb(71%, 27%, 27%)"/>
<circle cx="112.5" cy="86.1598940242109" r="5.0" stroke="rgb(35%, 35%, 35%)" stroke-width="1.0" fill="none"/>
<text x="112.5" y="89.1598940242109" text-anchor="middle" font-family="Verdana" font-size="7.5" fill="rgb(100%, 100%, 100%)" >G</text>
<circle cx="112.5" cy="66.1598940242109" r="5.0" stroke="none" stroke-width="1.0" fill="rgb(71%, 27%, 27%)"/>
<circle cx="112.5" cy="66.1598940242109" r="5.0" stroke="rgb(35%, 35%, 35%)" stroke-width="1.0" fill="none"/>
<text x="112.5" y="69.1598940242109" text-anchor="middle" font-family="Verdana" font-size="7.5" fill="rgb(100%, 100%, 100%)" >A</text>
<circle cx="100.657435595344" cy="52.46039664898532" r="5.0" stroke="none" stroke-width="1.0" fill="rgb(27%, 27%, 71%)"/>
<circle cx="100.657435595344" cy="52.46039664898532" r="5.0" stroke="rgb(35%, 35%, 35%)" stroke-width="1.0" fill="none"/>
<text x="100.657435595344" y="55.46039664898532" text-anchor="middle" font-family="Verdana" font-size="7.5" fill="rgb(100%, 100%, 100%)" >T</text>
<circle cx="98.60587442480576" cy="34.46835238559555" r="5.0" stroke="none" stroke-width="1.0" fill="rgb(27%, 27%, 71%)"/>
<circle cx="98.60587442480576" cy="34.46835238559555" r="5.0" stroke="rgb(35%, 35%, 35%)" stroke-width="1.0" fill="none"/>
<text x="98.60587442480576" y="37.46835238559555" text-anchor="middle" font-family="Verdana" font-size="7.5" fill="rgb(100%, 100%, 100%)" >A</text>
<circle cx="107.06033992897943" cy="18.454465504173697" r="5.0" stroke="none" stroke-width="1.0" fill="rgb(27%, 27%, 71%)"/>
<circle cx="107.06033992897943" cy="18.454465504173697" r="5.0" stroke="rgb(35%, 35%, 35%)" stroke-width="1.0" fill="none"/>
<text x="107.06033992897943" y="21.454465504173697" text-anchor="middle" font-family="Verdana" font-size="7.5" fill="rgb(100%, 100%, 100%)" >A</text>
<circle cx="123.07422681040129" cy="10.0" r="5.0" stroke="none" stroke-width="1.0" fill="rgb(27%, 27%, 71%)"/>
<circle cx="123.07422681040129" cy="10.0" r="5.0" stroke="rgb(35%, 35%, 35%)" stroke-width="1.0" fill="none"/>
<text x="123.07422681040129" y="13.0" text-anchor="middle" font-family="Verdana" font-size="7.5" fill="rgb(100%, 100%, 100%)" >T</text>
<circle cx="141.06627107379103" cy="12.051561170538264" r="5.0" stroke="none" stroke-width="1.0" fill="rgb(27%, 27%, 71%)"/>
<circle cx="141.06627107379103" cy="12.051561170538264" r="5.0" stroke="rgb(35%, 35%, 35%)" stroke-width="1.0" fill="none"/>
<text x="141.06627107379103" y="15.051561170538264" text-anchor="middle" font-family="Verdana" font-size="7.5" fill="rgb(100%, 100%, 100%)" >T</text>
<circle cx="154.7657684490166" cy="23.894125575194266" r="5.0" stroke="none" stroke-width="1.0" fill="rgb(71%, 27%, 27%)"/>
<circle cx="154.7657684490166" cy="23.894125575194266" r="5.0" stroke="rgb(35%, 35%, 35%)" stroke-width="1.0" fill="none"/>
<text x="154.7657684490166" y="26.894125575194266" text-anchor="middle" font-family="Verdana" font-size="7.5" fill="rgb(100%, 100%, 100%)" >A</text>
<circle cx="174.7657684490166" cy="23.894125575194266" r="5.0" stroke="none" stroke-width="1.0" fill="rgb(71%, 27%, 27%)"/>
<circle cx="174.7657684490166" cy="23.894125575194266" r="5.0" stroke="rgb(35%, 35%, 35%)" stroke-width="1.0" fill="none"/>
<text x="174.7657684490166" y="26.894125575194266" text-anchor="middle" font-family="Verdana" font-size="7.5" fill="rgb(100%, 100%, 100%)" >T</text>
<circle cx="190.9538087486712" cy="17.245955970376315" r="5.0" stroke="none" stroke-width="1.0" fill="rgb(27%, 27%, 71%)"/>
<circle cx="190.9538087486712" cy="17.245955970376315" r="5.0" stroke="rgb(35%, 35%, 35%)" stroke-width="1.0" fill="none"/>
<text x="190.9538087486712" y="20.245955970376315" text-anchor="middle" font-family="Verdana" font-size="7.5" fill="rgb(100%, 100%, 100%)" >G</text>
<circle cx="207.10957497492464" cy="23.9721752264158" r="5.0" stroke="none" stroke-width="1.0" fill="rgb(27%, 27%, 71%)"/>
<circle cx="207.10957497492464" cy="23.9721752264158" r="5.0" stroke="rgb(35%, 35%, 35%)" stroke-width="1.0" fill="none"/>
<text x="207.10957497492464" y="26.9721752264158" text-anchor="middle" font-family="Verdana" font-size="7.5" fill="rgb(100%, 100%, 100%)" >C</text>
<circle cx="213.79678887566908" cy="40.144125575194266" r="5.0" stroke="none" stroke-width="1.0" fill="rgb(27%, 27%, 71%)"/>
<circle cx="213.79678887566908" cy="40.144125575194266" r="5.0" stroke="rgb(35%, 35%, 35%)" stroke-width="1.0" fill="none"/>
<text x="213.79678887566908" y="43.144125575194266" text-anchor="middle" font-family="Verdana" font-size="7.5" fill="rgb(100%, 100%, 100%)" >T</text>
<circle cx="207.10957497492464" cy="56.31607592397276" r="5.0" stroke="none" stroke-width="1.0" fill="rgb(27%, 27%, 71%)"/>
<circle cx="207.10957497492464" cy="56.31607592397276" r="5.0" stroke="rgb(35%, 35%, 35%)" stroke-width="1.0" fill="none"/>
<text x="207.10957497492464" y="59.31607592397276" text-anchor="middle" font-family="Verdana" font-size="7.5" fill="rgb(100%, 100%, 100%)" >A</text>
<circle cx="190.9538087486712" cy="63.04229518001219" r="5.0" stroke="none" stroke-width="1.0" fill="rgb(27%, 27%, 71%)"/>
<circle cx="190.9538087486712" cy="63.04229518001219" r="5.0" stroke="rgb(35%, 35%, 35%)" stroke-width="1.0" fill="none"/>
<text x="190.9538087486712" y="66.04229518001219" text-anchor="middle" font-family="Verdana" font-size="7.5" fill="rgb(100%, 100%, 100%)" >T</text>
<circle cx="174.7657684490166" cy="56.394125575194295" r="5.0" stroke="none" stroke-width="1.0" fill="rgb(71%, 27%, 27%)"/>
<circle cx="174.7657684490166" cy="56.394125575194295" r="5.0" stroke="rgb(35%, 35%, 35%)" stroke-width="1.0" fill="none"/>
<text x="174.7657684490166" y="59.394125575194295" text-anchor="middle" font-family="Verdana" font-size="7.5" fill="rgb(100%, 100%, 100%)" >A</text>
<circle cx="154.7657684490166" cy="56.394125575194295" r="5.0" stroke="none" stroke-width="1.0" fill="rgb(71%, 27%, 27%)"/>
<circle cx="154.7657684490166" cy="56.394125575194295" r="5.0" stroke="rgb(35%, 35%, 35%)" stroke-width="1.0" fill="none"/>
<text x="154.7657684490166" y="59.394125575194295" text-anchor="middle" font-family="Verdana" font-size="7.5" fill="rgb(100%, 100%, 100%)" >T</text>
<circle cx="145.0" cy="66.1598940242109" r="5.0" stroke="none" stroke-width="1.0" fill="rgb(71%, 27%, 27%)"/>
<circle cx="145.0" cy="66.1598940242109" r="5.0" stroke="rgb(35%, 35%, 35%)" stroke-width="1.0" fill="none"/>
<text x="145.0" y="69.1598940242109" text-anchor="middle" font-family="Verdana" font-size="7.5" fill="rgb(100%, 100%, 100%)" >T</text>
<circle cx="145.0" cy="86.1598940242109" r="5.0" stroke="none" stroke-width="1.0" fill="rgb(71%, 27%, 27%)"/>
<circle cx="145.0" cy="86.1598940242109" r="5.0" stroke="rgb(35%, 35%, 35%)" stroke-width="1.0" fill="none"/>
<text x="145.0" y="89.1598940242109" text-anchor="middle" font-family="Verdana" font-size="7.5" fill="rgb(100%, 100%, 100%)" >C</text>
<circle cx="145.0" cy="106.15989402421087" r="5.0" stroke="none" stroke-width="1.0" fill="rgb(71%, 27%, 27%)"/>
<circle cx="145.0" cy="106.15989402421087" r="5.0" stroke="rgb(35%, 35%, 35%)" stroke-width="1.0" fill="none"/>
<text x="145.0" y="109.15989402421087" text-anchor="middle" font-family="Verdana" font-size="7.5" fill="rgb(100%, 100%, 100%)" >G</text>
<circle cx="151.67837715148926" cy="122.33543045429363" r="5.0" stroke="none" stroke-width="1.0" fill="rgb(27%, 27%, 71%)"/>
<circle cx="151.67837715148926" cy="122.33543045429363" r="5.0" stroke="rgb(35%, 35%, 35%)" stroke-width="1.0" fill="none"/>
<text x="151.67837715148926" y="125.33543045429363" text-anchor="middle" font-family="Verdana" font-size="7.5" fill="rgb(100%, 100%, 100%)" >G</text>
<circle cx="145.0" cy="138.51096688437642" r="5.0" stroke="none" stroke-width="1.0" fill="rgb(71%, 27%, 27%)"/>
<circle cx="145.0" cy="138.51096688437642" r="5.0" stroke="rgb(35%, 35%, 35%)" stroke-width="1.0" fill="none"/>
<text x="145.0" y="141.51096688437642" text-anchor="middle" font-family="Verdana" font-size="7.5" fill="rgb(100%, 100%, 100%)" >C</text>
<circle cx="145.0" cy="158.51096688437642" r="5.0" stroke="none" stroke-width="1.0" fill="rgb(71%, 27%, 27%)"/>
<circle cx="145.0" cy="158.51096688437642" r="5.0" stroke="rgb(35%, 35%, 35%)" stroke-width="1.0" fill="none"/>
<text x="145.0" y="161.51096688437642" text-anchor="middle" font-family="Verdana" font-size="7.5" fill="rgb(100%, 100%, 100%)" >G</text>
<circle cx="145.0" cy="178.51096688437642" r="5.0" stroke="none" stroke-width="1.0" fill="rgb(71%, 27%, 27%)"/>
<circle cx="145.0" cy="178.51096688437642" r="5.0" stroke="rgb(35%, 35%, 35%)" stroke-width="1.0" fill="none"/>
<text x="145.0" y="181.51096688437642" text-anchor="middle" font-family="Verdana" font-size="7.5" fill="rgb(100%, 100%, 100%)" >A</text>
<circle cx="162.5" cy="178.51096688437642" r="5.0" stroke="none" stroke-width="1.0" fill="rgb(27%, 27%, 71%)"/>
<circle cx="162.5" cy="178.51096688437642" r="5.0" stroke="rgb(35%, 35%, 35%)" stroke-width="1.0" fill="none"/>
<text x="162.5" y="181.51096688437642" text-anchor="middle" font-family="Verdana" font-size="7.5" fill="rgb(100%, 100%, 100%)" >T</text>
<circle cx="180.0" cy="178.51096688437642" r="5.0" stroke="none" stroke-width="1.0" fill="rgb(27%, 27%, 71%)"/>
<circle cx="180.0" cy="178.51096688437642" r="5.0" stroke="rgb(35%, 35%, 35%)" stroke-width="1.0" fill="none"/>
<text x="180.0" y="181.51096688437642" text-anchor="middle" font-family="Verdana" font-size="7.5" fill="rgb(100%, 100%, 100%)" >A</text>
<line x1="10.0" y1="186.0109668843764" x2="10.0" y2="191.0109668843764" stroke="rgb(25%, 25%, 25%)" stroke-width="1.0" />
<text x="10.0" y="201.5109668843764" text-anchor="middle" font-family="Verdana" font-size="7.5" fill="rgb(25%, 25%, 25%)" >1</text>
<line x1="109.14814776801555" y1="142.3048281991982" x2="114.14813321014731" y2="142.29276260884913" stroke="rgb(25%, 25%, 25%)" stroke-width="1.0" />
<text x="121.64811137334493" y="145.27466422332552" text-anchor="middle" font-family="Verdana" font-size="7.5" fill="rgb(25%, 25%, 25%)" >10</text>
<line x1="93.78857179351124" y1="55.47182655384307" x2="89.20932925895606" y2="57.47944649041489" stroke="rgb(25%, 25%, 25%)" stroke-width="1.0" />
<text x="82.34046545712329" y="63.490876395272636" text-anchor="middle" font-family="Verdana" font-size="7.5" fill="rgb(25%, 25%, 25%)" >20</text>
<line x1="212.41927072380832" y1="61.61297417240897" x2="215.9590678897308" y2="65.14423967136642" stroke="rgb(25%, 25%, 25%)" stroke-width="1.0" />
<text x="221.26876363861447" y="73.44113791980263" text-anchor="middle" font-family="Verdana" font-size="7.5" fill="rgb(25%, 25%, 25%)" >30</text>
<line x1="150.3033008588991" y1="183.8142677432755" x2="153.83883476483183" y2="187.34980164920825" stroke="rgb(25%, 25%, 25%)" stroke-width="1.0" />
<text x="159.14213562373095" y="195.65310250810737" text-anchor="middle" font-family="Verdana" font-size="7.5" fill="rgb(25%, 25%, 25%)" >40</text>
<line x1="180.0" y1="186.01096688437642" x2="180.0" y2="191.01096688437642" stroke="rgb(25%, 25%, 25%)" stroke-width="1.0" />
<text x="180.0" y="201.51096688437642" text-anchor="middle" font-family="Verdana" font-size="7.5" fill="rgb(25%, 25%, 25%)" >42</text>
<path d="M 146.0 228.5109668843764 L 147.0 228.5109668843764 L 147.0 213.5109668843764 L 146.0 213.5109668843764 z" fill="rgb(27%, 27%, 71%)" style="stroke:none;"/>
<path d="M 146.5 228.5109668843764 L 147.5 228.5109668843764 L 147.5 213.5109668843764 L 146.5 213.5109668843764 z" fill="rgb(27%, 27%, 72%)" style="stroke:none;"/>
<path d="M 147.0 228.5109668843764 L 148.0 228.5109668843764 L 148.0 213.5109668843764 L 147.0 213.5109668843764 z" fill="rgb(27%, 27%, 73%)" style="stroke:none;"/>
<path d="M 147.5 228.5109668843764 L 148.5 228.5109668843764 L 148.5 213.5109668843764 L 147.5 213.5109668843764 z" fill="rgb(27%, 27%, 74%)" style="stroke:none;"/>
<path d="M 148.0 228.5109668843764 L 149.0 228.5109668843764 L 149.0 213.5109668843764 L 148.0 213.5109668843764 z" fill="rgb(27%, 27%, 76%)" style="stroke:none;"/>
<path d="M 148.5 228.5109668843764 L 149.5 228.5109668843764 L 149.5 213.5109668843764 L 148.5 213.5109668843764 z" fill="rgb(27%, 27%, 77%)" style="stroke:none;"/>
<path d="M 149.0 228.5109668843764 L 150.0 228.5109668843764 L 150.0 213.5109668843764 L 149.0 213.5109668843764 z" fill="rgb(27%, 27%, 78%)" style="stroke:none;"/>
<path d="M 149.5 228.5109668843764 L 150.5 228.5109668843764 L 150.5 213.5109668843764 L 149.5 213.5109668843764 z" fill="rgb(27%, 27%, 79%)" style="stroke:none;"/>
<path d="M 150.0 228.5109668843764 L 151.0 228.5109668843764 L 151.0 213.5109668843764 L 150.0 213.5109668843764 z" fill="rgb(27%, 27%, 80%)" style="stroke:none;"/>
<path d="M 150.5 228.5109668843764 L 151.5 228.5109668843764 L 151.5 213.5109668843764 L 150.5 213.5109668843764 z" fill="rgb(27%, 27%, 81%)" style="stroke:none;"/>
<path d="M 151.0 228.5109668843764 L 152.0 228.5109668843764 L 152.0 213.5109668843764 L 151.0 213.5109668843764 z" fill="rgb(27%, 27%, 83%)" style="stroke:none;"/>
<path d="M 151.5 228.5109668843764 L 152.5 228.5109668843764 L 152.5 213.5109668843764 L 151.5 213.5109668843764 z" fill="rgb(27%, 27%, 84%)" style="stroke:none;"/>
<path d="M 152.0 228.5109668843764 L 153.0 228.5109668843764 L 153.0 213.5109668843764 L 152.0 213.5109668843764 z" fill="rgb(27%, 27%, 85%)" style="stroke:none;"/>
<path d="M 152.5 228.5109668843764 L 153.5 228.5109668843764 L 153.5 213.5109668843764 L 152.5 213.5109668843764 z" fill="rgb(27%, 27%, 86%)" style="stroke:none;"/>
<path d="M 153.0 228.5109668843764 L 154.0 228.5109668843764 L 154.0 213.5109668843764 L 153.0 213.5109668843764 z" fill="rgb(27%, 27%, 87%)" style="stroke:none;"/>
<path d="M 153.5 228.5109668843764 L 154.5 228.5109668843764 L 154.5 213.5109668843764 L 153.5 213.5109668843764 z" fill="rgb(27%, 27%, 89%)" style="stroke:none;"/>
<path d="M 154.0 228.5109668843764 L 155.0 228.5109668843764 L 155.0 213.5109668843764 L 154.0 213.5109668843764 z" fill="rgb(27%, 27%, 90%)" style="stroke:none;"/>
<path d="M 154.5 228.5109668843764 L 155.5 228.5109668843764 L 155.5 213.5109668843764 L 154.5 213.5109668843764 z" fill="rgb(27%, 27%, 91%)" style="stroke:none;"/>
<path d="M 155.0 228.5109668843764 L 156.0 228.5109668843764 L 156.0 213.5109668843764 L 155.0 213.5109668843764 z" fill="rgb(27%, 27%, 92%)" style="stroke:none;"/>
<path d="M 155.5 228.5109668843764 L 156.5 228.5109668843764 L 156.5 213.5109668843764 L 155.5 213.5109668843764 z" fill="rgb(27%, 27%, 94%)" style="stroke:none;"/>
<path d="M 156.0 228.5109668843764 L 157.0 228.5109668843764 L 157.0 213.5109668843764 L 156.0 213.5109668843764 z" fill="rgb(27%, 27%, 95%)" style="stroke:none;"/>
<path d="M 156.5 228.5109668843764 L 157.5 228.5109668843764 L 157.5 213.5109668843764 L 156.5 213.5109668843764 z" fill="rgb(27%, 27%, 96%)" style="stroke:none;"/>
<path d="M 157.0 228.5109668843764 L 158.0 228.5109668843764 L 158.0 213.5109668843764 L 157.0 213.5109668843764 z" fill="rgb(27%, 27%, 97%)" style="stroke:none;"/>
<path d="M 157.5 228.5109668843764 L 158.5 228.5109668843764 L 158.5 213.5109668843764 L 157.5 213.5109668843764 z" fill="rgb(27%, 27%, 98%)" style="stroke:none;"/>
<path d="M 158.0 228.5109668843764 L 159.0 228.5109668843764 L 159.0 213.5109668843764 L 158.0 213.5109668843764 z" fill="rgb(27%, 27%, 99%)" style="stroke:none;"/>
<path d="M 158.5 228.5109668843764 L 159.5 228.5109668843764 L 159.5 213.5109668843764 L 158.5 213.5109668843764 z" fill="rgb(27%, 29%, 97%)" style="stroke:none;"/>
<path d="M 159.0 228.5109668843764 L 160.0 228.5109668843764 L 160.0 213.5109668843764 L 159.0 213.5109668843764 z" fill="rgb(26%, 31%, 96%)" style="stroke:none;"/>
<path d="M 159.5 228.5109668843764 L 160.5 228.5109668843764 L 160.5 213.5109668843764 L 159.5 213.5109668843764 z" fill="rgb(26%, 33%, 94%)" style="stroke:none;"/>
<path d="M 160.0 228.5109668843764 L 161.0 228.5109668843764 L 161.0 213.5109668843764 L 160.0 213.5109668843764 z" fill="rgb(25%, 34%, 92%)" style="stroke:none;"/>
<path d="M 160.5 228.5109668843764 L 161.5 228.5109668843764 L 161.5 213.5109668843764 L 160.5 213.5109668843764 z" fill="rgb(25%, 36%, 90%)" style="stroke:none;"/>
<path d="M 161.0 228.5109668843764 L 162.0 228.5109668843764 L 162.0 213.5109668843764 L 161.0 213.5109668843764 z" fill="rgb(25%, 38%, 89%)" style="stroke:none;"/>
<path d="M 161.5 228.5109668843764 L 162.5 228.5109668843764 L 162.5 213.5109668843764 L 161.5 213.5109668843764 z" fill="rgb(24%, 40%, 87%)" style="stroke:none;"/>
<path d="M 162.0 228.5109668843764 L 163.0 228.5109668843764 L 163.0 213.5109668843764 L 162.0 213.5109668843764 z" fill="rgb(24%, 41%, 85%)" style="stroke:none;"/>
<path d="M 162.5 228.5109668843764 L 163.5 228.5109668843764 L 163.5 213.5109668843764 L 162.5 213.5109668843764 z" fill="rgb(23%, 43%, 83%)" style="stroke:none;"/>
<path d="M 163.0 228.5109668843764 L 164.0 228.5109668843764 L 164.0 213.5109668843764 L 163.0 213.5109668843764 z" fill="rgb(23%, 45%, 81%)" style="stroke:none;"/>
<path d="M 163.5 228.5109668843764 L 164.5 228.5109668843764 L 164.5 213.5109668843764 L 163.5 213.5109668843764 z" fill="rgb(23%, 47%, 80%)" style="stroke:none;"/>
<path d="M 164.0 228.5109668843764 L 165.0 228.5109668843764 L 165.0 213.5109668843764 L 164.0 213.5109668843764 z" fill="rgb(22%, 48%, 78%)" style="stroke:none;"/>
<path d="M 164.5 228.5109668843764 L 165.5 228.5109668843764 L 165.5 213.5109668843764 L 164.5 213.5109668843764 z" fill="rgb(22%, 50%, 76%)" style="stroke:none;"/>
<path d="M 165.0 228.5109668843764 L 166.0 228.5109668843764 L 166.0 213.5109668843764 L 165.0 213.5109668843764 z" fill="rgb(21%, 52%, 75%)" style="stroke:none;"/>
<path d="M 165.5 228.5109668843764 L 166.5 228.5109668843764 L 166.5 213.5109668843764 L 165.5 213.5109668843764 z" fill="rgb(21%, 54%, 73%)" style="stroke:none;"/>
<path d="M 166.0 228.5109668843764 L 167.0 228.5109668843764 L 167.0 213.5109668843764 L 166.0 213.5109668843764 z" fill="rgb(21%, 55%, 71%)" style="stroke:none;"/>
<path d="M 166.5 228.5109668843764 L 167.5 228.5109668843764 L 167.5 213.5109668843764 L 166.5 213.5109668843764 z" fill="rgb(20%, 57%, 70%)" style="stroke:none;"/>
<path d="M 167.0 228.5109668843764 L 168.0 228.5109668843764 L 168.0 213.5109668843764 L 167.0 213.5109668843764 z" fill="rgb(20%, 59%, 68%)" style="stroke:none;"/>
<path d="M 167.5 228.5109668843764 L 168.5 228.5109668843764 L 168.5 213.5109668843764 L 167.5 213.5109668843764 z" fill="rgb(20%, 60%, 66%)" style="stroke:none;"/>
<path d="M 168.0 228.5109668843764 L 169.0 228.5109668843764 L 169.0 213.5109668843764 L 168.0 213.5109668843764 z" fill="rgb(19%, 62%, 64%)" style="stroke:none;"/>
<path d="M 168.5 228.5109668843764 L 169.5 228.5109668843764 L 169.5 213.5109668843764 L 168.5 213.5109668843764 z" fill="rgb(19%, 64%, 63%)" style="stroke:none;"/>
<path d="M 169.0 228.5109668843764 L 170.0 228.5109668843764 L 170.0 213.5109668843764 L 169.0 213.5109668843764 z" fill="rgb(18%, 66%, 61%)" style="stroke:none;"/>
<path d="M 169.5 228.5109668843764 L 170.5 228.5109668843764 L 170.5 213.5109668843764 L 169.5 213.5109668843764 z" fill="rgb(18%, 67%, 59%)" style="stroke:none;"/>
<path d="M 170.0 228.5109668843764 L 171.0 228.5109668843764 L 171.0 213.5109668843764 L 170.0 213.5109668843764 z" fill="rgb(18%, 69%, 58%)" style="stroke:none;"/>
<path d="M 170.5 228.5109668843764 L 171.5 228.5109668843764 L 171.5 213.5109668843764 L 170.5 213.5109668843764 z" fill="rgb(17%, 71%, 56%)" style="stroke:none;"/>
<path d="M 171.0 228.5109668843764 L 172.0 228.5109668843764 L 172.0 213.5109668843764 L 171.0 213.5109668843764 z" fill="rgb(16%, 72%, 54%)" style="stroke:none;"/>
<path d="M 171.5 228.5109668843764 L 172.5 228.5109668843764 L 172.5 213.5109668843764 L 171.5 213.5109668843764 z" fill="rgb(16%, 74%, 52%)" style="stroke:none;"/>
<path d="M 172.0 228.5109668843764 L 173.0 228.5109668843764 L 173.0 213.5109668843764 L 172.0 213.5109668843764 z" fill="rgb(16%, 76%, 50%)" style="stroke:none;"/>
<path d="M 172.5 228.5109668843764 L 173.5 228.5109668843764 L 173.5 213.5109668843764 L 172.5 213.5109668843764 z" fill="rgb(15%, 78%, 49%)" style="stroke:none;"/>
<path d="M 173.0 228.5109668843764 L 174.0 228.5109668843764 L 174.0 213.5109668843764 L 173.0 213.5109668843764 z" fill="rgb(15%, 80%, 47%)" style="stroke:none;"/>
<path d="M 173.5 228.5109668843764 L 174.5 228.5109668843764 L 174.5 213.5109668843764 L 173.5 213.5109668843764 z" fill="rgb(14%, 81%, 45%)" style="stroke:none;"/>
<path d="M 174.0 228.5109668843764 L 175.0 228.5109668843764 L 175.0 213.5109668843764 L 174.0 213.5109668843764 z" fill="rgb(14%, 83%, 43%)" style="stroke:none;"/>
<path d="M 174.5 228.5109668843764 L 175.5 228.5109668843764 L 175.5 213.5109668843764 L 174.5 213.5109668843764 z" fill="rgb(14%, 85%, 42%)" style="stroke:none;"/>
<path d="M 175.0 228.5109668843764 L 176.0 228.5109668843764 L 176.0 213.5109668843764 L 175.0 213.5109668843764 z" fill="rgb(13%, 87%, 40%)" style="stroke:none;"/>
<path d="M 175.5 228.5109668843764 L 176.5 228.5109668843764 L 176.5 213.5109668843764 L 175.5 213.5109668843764 z" fill="rgb(13%, 88%, 38%)" style="stroke:none;"/>
<path d="M 176.0 228.5109668843764 L 177.0 228.5109668843764 L 177.0 213.5109668843764 L 176.0 213.5109668843764 z" fill="rgb(12%, 90%, 37%)" style="stroke:none;"/>
<path d="M 176.5 228.5109668843764 L 177.5 228.5109668843764 L 177.5 213.5109668843764 L 176.5 213.5109668843764 z" fill="rgb(12%, 92%, 35%)" style="stroke:none;"/>
<path d="M 177.0 228.5109668843764 L 178.0 228.5109668843764 L 178.0 213.5109668843764 L 177.0 213.5109668843764 z" fill="rgb(12%, 93%, 33%)" style="stroke:none;"/>
<path d="M 177.5 228.5109668843764 L 178.5 228.5109668843764 L 178.5 213.5109668843764 L 177.5 213.5109668843764 z" fill="rgb(11%, 95%, 31%)" style="stroke:none;"/>
<path d="M 178.0 228.5109668843764 L 179.0 228.5109668843764 L 179.0 213.5109668843764 L 178.0 213.5109668843764 z" fill="rgb(11%, 97%, 30%)" style="stroke:none;"/>
<path d="M 178.5 228.5109668843764 L 179.5 228.5109668843764 L 179.5 213.5109668843764 L 178.5 213.5109668843764 z" fill="rgb(10%, 99%, 28%)" style="stroke:none;"/>
<path d="M 179.0 228.5109668843764 L 180.0 228.5109668843764 L 180.0 213.5109668843764 L 179.0 213.5109668843764 z" fill="rgb(14%, 100%, 27%)" style="stroke:none;"/>
<path d="M 179.5 228.5109668843764 L 180.5 228.5109668843764 L 180.5 213.5109668843764 L 179.5 213.5109668843764 z" fill="rgb(22%, 100%, 27%)" style="stroke:none;"/>
<path d="M 180.0 228.5109668843764 L 181.0 228.5109668843764 L 181.0 213.5109668843764 L 180.0 213.5109668843764 z" fill="rgb(29%, 100%, 27%)" style="stroke:none;"/>
<path d="M 180.5 228.5109668843764 L 181.5 228.5109668843764 L 181.5 213.5109668843764 L 180.5 213.5109668843764 z" fill="rgb(37%, 100%, 27%)" style="stroke:none;"/>
<path d="M 181.0 228.5109668843764 L 182.0 228.5109668843764 L 182.0 213.5109668843764 L 181.0 213.5109668843764 z" fill="rgb(44%, 100%, 27%)" style="stroke:none;"/>
<path d="M 181.5 228.5109668843764 L 182.5 228.5109668843764 L 182.5 213.5109668843764 L 181.5 213.5109668843764 z" fill="rgb(52%, 100%, 27%)" style="stroke:none;"/>
<path d="M 182.0 228.5109668843764 L 183.0 228.5109668843764 L 183.0 213.5109668843764 L 182.0 213.5109668843764 z" fill="rgb(59%, 100%, 27%)" style="stroke:none;"/>
<path d="M 182.5 228.5109668843764 L 183.5 228.5109668843764 L 183.5 213.5109668843764 L 182.5 213.5109668843764 z" fill="rgb(67%, 100%, 27%)" style="stroke:none;"/>
<path d="M 183.0 228.5109668843764 L 184.0 228.5109668843764 L 184.0 213.5109668843764 L 183.0 213.5109668843764 z" fill="rgb(74%, 100%, 27%)" style="stroke:none;"/>
<path d="M 183.5 228.5109668843764 L 184.5 228.5109668843764 L 184.5 213.5109668843764 L 183.5 213.5109668843764 z" fill="rgb(82%, 100%, 27%)" style="stroke:none;"/>
<path d="M 184.0 228.5109668843764 L 185.0 228.5109668843764 L 185.0 213.5109668843764 L 184.0 213.5109668843764 z" fill="rgb(89%, 100%, 27%)" style="stroke:none;"/>
<path d="M 184.5 228.5109668843764 L 185.5 228.5109668843764 L 185.5 213.5109668843764 L 184.5 213.5109668843764 z" fill="rgb(97%, 100%, 27%)" style="stroke:none;"/>
<path d="M 185.0 228.5109668843764 L 186.0 228.5109668843764 L 186.0 213.5109668843764 L 185.0 213.5109668843764 z" fill="rgb(100%, 98%, 27%)" style="stroke:none;"/>
<path d="M 185.5 228.5109668843764 L 186.5 228.5109668843764 L 186.5 213.5109668843764 L 185.5 213.5109668843764 z" fill="rgb(100%, 95%, 27%)" style="stroke:none;"/>
<path d="M 186.0 228.5109668843764 L 187.0 228.5109668843764 L 187.0 213.5109668843764 L 186.0 213.5109668843764 z" fill="rgb(100%, 93%, 27%)" style="stroke:none;"/>
<path d="M 186.5 228.5109668843764 L 187.5 228.5109668843764 L 187.5 213.5109668843764 L 186.5 213.5109668843764 z" fill="rgb(100%, 90%, 27%)" style="stroke:none;"/>
<path d="M 187.0 228.5109668843764 L 188.0 228.5109668843764 L 188.0 213.5109668843764 L 187.0 213.5109668843764 z" fill="rgb(100%, 88%, 27%)" style="stroke:none;"/>
<path d="M 187.5 228.5109668843764 L 188.5 228.5109668843764 L 188.5 213.5109668843764 L 187.5 213.5109668843764 z" fill="rgb(100%, 86%, 27%)" style="stroke:none;"/>
<path d="M 188.0 228.5109668843764 L 189.0 228.5109668843764 L 189.0 213.5109668843764 L 188.0 213.5109668843764 z" fill="rgb(100%, 83%, 27%)" style="stroke:none;"/>
<path d="M 188.5 228.5109668843764 L 189.5 228.5109668843764 L 189.5 213.5109668843764 L 188.5 213.5109668843764 z" fill="rgb(100%, 81%, 27%)" style="stroke:none;"/>
<path d="M 189.0 228.5109668843764 L 190.0 228.5109668843764 L 190.0 213.5109668843764 L 189.0 213.5109668843764 z" fill="rgb(100%, 78%, 27%)" style="stroke:none;"/>
<path d="M 189.5 228.5109668843764 L 190.5 228.5109668843764 L 190.5 213.5109668843764 L 189.5 213.5109668843764 z" fill="rgb(100%, 76%, 27%)" style="stroke:none;"/>
<path d="M 190.0 228.5109668843764 L 191.0 228.5109668843764 L 191.0 213.5109668843764 L 190.0 213.5109668843764 z" fill="rgb(100%, 74%, 27%)" style="stroke:none;"/>
<path d="M 190.5 228.5109668843764 L 191.5 228.5109668843764 L 191.5 213.5109668843764 L 190.5 213.5109668843764 z" fill="rgb(100%, 71%, 27%)" style="stroke:none;"/>
<path d="M 191.0 228.5109668843764 L 192.0 228.5109668843764 L 192.0 213.5109668843764 L 191.0 213.5109668843764 z" fill="rgb(100%, 69%, 27%)" style="stroke:none;"/>
<path d="M 191.5 228.5109668843764 L 192.5 228.5109668843764 L 192.5 213.5109668843764 L 191.5 213.5109668843764 z" fill="rgb(100%, 66%, 27%)" style="stroke:none;"/>
<path d="M 192.0 228.5109668843764 L 193.0 228.5109668843764 L 193.0 213.5109668843764 L 192.0 213.5109668843764 z" fill="rgb(100%, 64%, 27%)" style="stroke:none;"/>
<path d="M 192.5 228.5109668843764 L 193.5 228.5109668843764 L 193.5 213.5109668843764 L 192.5 213.5109668843764 z" fill="rgb(100%, 61%, 27%)" style="stroke:none;"/>
<path d="M 193.0 228.5109668843764 L 194.0 228.5109668843764 L 194.0 213.5109668843764 L 193.0 213.5109668843764 z" fill="rgb(100%, 59%, 27%)" style="stroke:none;"/>
<path d="M 193.5 228.5109668843764 L 194.5 228.5109668843764 L 194.5 213.5109668843764 L 193.5 213.5109668843764 z" fill="rgb(100%, 56%, 27%)" style="stroke:none;"/>
<path d="M 194.0 228.5109668843764 L 195.0 228.5109668843764 L 195.0 213.5109668843764 L 194.0 213.5109668843764 z" fill="rgb(100%, 54%, 27%)" style="stroke:none;"/>
<path d="M 194.5 228.5109668843764 L 195.5 228.5109668843764 L 195.5 213.5109668843764 L 194.5 213.5109668843764 z" fill="rgb(100%, 52%, 27%)" style="stroke:none;"/>
<path d="M 195.0 228.5109668843764 L 196.0 228.5109668843764 L 196.0 213.5109668843764 L 195.0 213.5109668843764 z" fill="rgb(100%, 49%, 27%)" style="stroke:none;"/>
<path d="M 195.5 228.5109668843764 L 196.5 228.5109668843764 L 196.5 213.5109668843764 L 195.5 213.5109668843764 z" fill="rgb(100%, 47%, 27%)" style="stroke:none;"/>
<path d="M 196.0 228.5109668843764 L 197.0 228.5109668843764 L 197.0 213.5109668843764 L 196.0 213.5109668843764 z" fill="rgb(100%, 44%, 27%)" style="stroke:none;"/>
<path d="M 196.5 228.5109668843764 L 197.5 228.5109668843764 L 197.5 213.5109668843764 L 196.5 213.5109668843764 z" fill="rgb(100%, 42%, 27%)" style="stroke:none;"/>
<path d="M 197.0 228.5109668843764 L 198.0 228.5109668843764 L 198.0 213.5109668843764 L 197.0 213.5109668843764 z" fill="rgb(100%, 40%, 27%)" style="stroke:none;"/>
<path d="M 197.5 228.5109668843764 L 198.5 228.5109668843764 L 198.5 213.5109668843764 L 197.5 213.5109668843764 z" fill="rgb(100%, 37%, 27%)" style="stroke:none;"/>
<path d="M 198.0 228.5109668843764 L 199.0 228.5109668843764 L 199.0 213.5109668843764 L 198.0 213.5109668843764 z" fill="rgb(100%, 35%, 27%)" style="stroke:none;"/>
<path d="M 198.5 228.5109668843764 L 199.5 228.5109668843764 L 199.5 213.5109668843764 L 198.5 213.5109668843764 z" fill="rgb(100%, 32%, 27%)" style="stroke:none;"/>
<path d="M 199.0 228.5109668843764 L 200.0 228.5109668843764 L 200.0 213.5109668843764 L 199.0 213.5109668843764 z" fill="rgb(100%, 30%, 27%)" style="stroke:none;"/>
<path d="M 199.5 228.5109668843764 L 200.5 228.5109668843764 L 200.5 213.5109668843764 L 199.5 213.5109668843764 z" fill="rgb(100%, 27%, 27%)" style="stroke:none;"/>
<path d="M 200.0 228.5109668843764 L 201.0 228.5109668843764 L 201.0 213.5109668843764 L 200.0 213.5109668843764 z" fill="rgb(97%, 27%, 27%)" style="stroke:none;"/>
<path d="M 200.5 228.5109668843764 L 201.5 228.5109668843764 L 201.5 213.5109668843764 L 200.5 213.5109668843764 z" fill="rgb(95%, 27%, 27%)" style="stroke:none;"/>
<path d="M 201.0 228.5109668843764 L 202.0 228.5109668843764 L 202.0 213.5109668843764 L 201.0 213.5109668843764 z" fill="rgb(92%, 27%, 27%)" style="stroke:none;"/>
<path d="M 201.5 228.5109668843764 L 202.5 228.5109668843764 L 202.5 213.5109668843764 L 201.5 213.5109668843764 z" fill="rgb(90%, 27%, 27%)" style="stroke:none;"/>
<path d="M 202.0 228.5109668843764 L 203.0 228.5109668843764 L 203.0 213.5109668843764 L 202.0 213.5109668843764 z" fill="rgb(87%, 27%, 27%)" style="stroke:none;"/>
<path d="M 202.5 228.5109668843764 L 203.5 228.5109668843764 L 203.5 213.5109668843764 L 202.5 213.5109668843764 z" fill="rgb(85%, 27%, 27%)" style="stroke:none;"/>
<path d="M 203.0 228.5109668843764 L 204.0 228.5109668843764 L 204.0 213.5109668843764 L 203.0 213.5109668843764 z" fill="rgb(83%, 27%, 27%)" style="stroke:none;"/>
<path d="M 203.5 228.5109668843764 L 204.5 228.5109668843764 L 204.5 213.5109668843764 L 203.5 213.5109668843764 z" fill="rgb(80%, 27%, 27%)" style="stroke:none;"/>
<path d="M 204.0 228.5109668843764 L 205.0 228.5109668843764 L 205.0 213.5109668843764 L 204.0 213.5109668843764 z" fill="rgb(78%, 27%, 27%)" style="stroke:none;"/>
<path d="M 204.5 228.5109668843764 L 205.5 228.5109668843764 L 205.5 213.5109668843764 L 204.5 213.5109668843764 z" fill="rgb(76%, 27%, 27%)" style="stroke:none;"/>
<path d="M 205.0 228.5109668843764 L 206.0 228.5109668843764 L 206.0 213.5109668843764 L 205.0 213.5109668843764 z" fill="rgb(73%, 27%, 27%)" style="stroke:none;"/>
<path d="M 205.5 228.5109668843764 L 206.5 228.5109668843764 L 206.5 213.5109668843764 L 205.5 213.5109668843764 z" fill="rgb(71%, 27%, 27%)" style="stroke:none;"/>
<rect x="146.26876363861447" y="213.51096688437642" width="60.5" height="15.0" fill="none" style="stroke-width:1.0;stroke:rgb(50%, 50%, 50%)"/><text x="146.26876363861447" y="210.29528060986658" text-anchor="middle" font-family="Verdana" font-size="6.666666666666667" fill="rgb(34%, 34%, 34%)" >0.0</text>
<text x="207.26876363861447" y="210.29528060986658" text-anchor="middle" font-family="Verdana" font-size="6.666666666666667" fill="rgb(34%, 34%, 34%)" >1.0</text>
<text x="176.76876363861447" y="237.05998649221954" text-anchor="middle" font-family="Verdana" font-size="6.666666666666667" fill="rgb(34%, 34%, 34%)" ></text>
</svg>
